<svg width="306" height="149" viewBox="0 0 306 149" fill="none" xmlns="http://www.w3.org/2000/svg">
<path fill-rule="evenodd" clip-rule="evenodd" d="M116.387 136.093C128.135 143.894 142.229 148.442 157.387 148.442C171.373 148.442 184.454 144.57 195.622 137.845C204.08 144.477 214.729 148.442 226.311 148.442C234.833 148.442 242.853 146.297 249.867 142.524C255.504 146.26 262.262 148.442 269.531 148.442C289.216 148.442 305.174 132.484 305.174 112.799C305.174 93.694 290.141 78.102 271.26 77.2C263.362 60.676 246.622 49.201 227.164 48.873C216.805 20.364 189.475 0 157.387 0C126.056 0 99.261 19.414 88.371 46.868C86.659 46.694 84.923 46.605 83.166 46.605C59.729 46.605 40.003 62.445 34.078 84C33.472 83.966 32.863 83.945 32.248 83.945C14.438 83.945 0 98.383 0 116.193C0 134.004 14.438 148.442 32.248 148.442C40.854 148.442 48.667 145.064 54.45 139.569C62.625 145.164 72.512 148.442 83.166 148.442C95.865 148.442 107.469 143.782 116.387 136.093Z" fill="#EEEEEA"/>
</svg>
