<svg width="465" height="214" viewBox="0 0 465 214" fill="none" xmlns="http://www.w3.org/2000/svg">
<path fill-rule="evenodd" clip-rule="evenodd" d="M437.09 160.033C436.786 160.033 436.491 160.071 436.189 160.079C432.245 140.646 415.757 125.777 395.544 124.268C388.491 90.4943 358.554 65.1233 322.684 65.1233C316.699 65.1233 310.888 65.8489 305.311 67.1819C289.512 27.8143 251.015 0 205.999 0C177.438 0 151.512 11.2141 132.324 29.4477C126.281 26.812 119.615 25.3423 112.6 25.3423C88.3514 25.3423 68.1994 42.8199 64.0164 65.8641C27.843 70.9329 0 101.989 0 139.561C0 180.673 33.3269 214 74.4375 214H437.09C451.992 214 464.072 201.919 464.072 187.018C464.072 172.115 451.992 160.033 437.09 160.033Z" fill="#E7EFFA"/>
</svg>
