<svg width="19" height="25" viewBox="0 0 19 25" fill="none" xmlns="http://www.w3.org/2000/svg">
<path fill-rule="evenodd" clip-rule="evenodd" d="M2.87564 21.6511C3.00582 21.2604 3.35255 21 3.74111 21H17.6686C18.1128 21 18.4938 21.339 18.5729 21.8049L18.989 24.2522C19.0077 24.3643 19.0039 24.4808 18.9673 24.5875C18.8797 24.8431 18.6575 25 18.4179 25H2.59645C2.47728 25 2.35854 24.9683 2.26029 24.897C2.02968 24.7305 1.94667 24.4305 2.03393 24.1701L2.87564 21.6511Z" fill="white"/>
<path fill-rule="evenodd" clip-rule="evenodd" d="M0.0980282 8.93026L4.59199 2.82869L3.72707 0.711877C3.65083 0.525291 3.69686 0.3159 3.84596 0.169691C3.99505 0.0235813 4.22213 -0.0342704 4.43351 0.020126L8.67061 1.10489C9.08507 1.09798 10.6402 1.12691 12.3653 1.84225C14.1879 2.59808 16.5516 4.28989 17.4599 8.05597C18.7134 13.2551 17.4932 17.2241 16.7361 19H4.73596L3.6649 18.0304C3.47065 17.8546 3.43826 17.5801 3.58692 17.3711C4.57497 15.9812 6.90588 12.4815 7.80701 10.3039C7.47675 10.4061 7.10275 10.472 6.70737 10.4535C6.14491 10.4269 5.63152 10.2402 5.17572 9.89814L3.53075 10.8912C3.02238 11.1977 2.39229 11.2922 1.80179 11.1503C1.21129 11.0084 0.715794 10.6436 0.442686 10.1488L0.0618172 9.45932C-0.0319824 9.29001 -0.0183487 9.08792 0.0980282 8.93026ZM6.40744 5.53469H7.20069C7.52321 5.53469 7.78443 5.29795 7.78443 5.00632C7.78443 4.7144 7.52321 4.47806 7.20069 4.47806H6.40744C6.08481 4.47806 5.8237 4.7144 5.8237 5.00632C5.8237 5.29795 6.08481 5.53469 6.40744 5.53469Z" fill="white"/>
</svg>
