<svg width="116" height="116" viewBox="0 0 116 116" fill="none" xmlns="http://www.w3.org/2000/svg">
<g filter="url(#filter0_f_0_327)">
<rect x="41" y="41" width="34" height="34" rx="2" fill="url(#paint0_linear_0_327)" fill-opacity="0.3"/>
<rect x="41" y="41" width="34" height="34" rx="2" fill="white" fill-opacity="0.05"/>
</g>
<rect x="34" y="27" width="48" height="48" rx="4" fill="url(#paint1_linear_0_327)"/>
<path fill-rule="evenodd" clip-rule="evenodd" d="M43.419 50.5516L53.3044 40.6662C54.0894 39.8812 55.4249 39.9397 56.2812 40.796L57.5563 42.0711L46.1193 53.5081C45.4182 54.2092 44.2555 54.1758 43.4639 53.4345C42.6848 52.5692 42.6641 51.3065 43.419 50.5516Z" fill="white"/>
<path fill-rule="evenodd" clip-rule="evenodd" d="M60.8336 39.8522L59.2605 41.4252C59.2013 41.4844 59.1464 41.5481 59.0964 41.6141C59.0856 41.6281 59.0727 41.6409 59.0603 41.6533C59.0399 41.6737 59.0151 41.6858 58.9899 41.7014C58.9775 41.7114 58.9679 41.7266 58.9527 41.733L46.7177 53.968C46.6505 54.0352 46.5816 54.0977 46.5096 54.157C46.4864 54.177 46.4616 54.193 46.438 54.2134C46.3879 54.2506 46.3407 54.2883 46.2895 54.3211C46.2595 54.3415 46.2271 54.3588 46.1987 54.3776C46.1503 54.4068 46.1051 54.4369 46.0582 54.4621C46.0238 54.4806 45.9878 54.495 45.9534 54.5134C45.9082 54.5339 45.863 54.5575 45.8158 54.5791C45.7798 54.5936 45.7426 54.606 45.7062 54.62C45.6594 54.6389 45.6142 54.6561 45.5674 54.6686C45.5298 54.6814 45.491 54.6923 45.4519 54.7035C45.4067 54.7143 45.3599 54.7268 45.3147 54.7376C45.2739 54.7473 45.2347 54.7521 45.1927 54.7598C45.1475 54.7674 45.1019 54.7755 45.0535 54.7799C45.0144 54.7847 44.9736 54.788 44.9336 54.7912C44.8976 54.7929 44.8644 54.7973 44.8284 54.799L54.6489 64.6194C55.4728 65.4433 56.813 65.4418 57.6367 64.6181L71.6181 50.6367C72.4423 49.8125 72.4434 48.4728 71.6195 47.6489L63.821 39.8504C62.9971 39.0265 61.6577 39.028 60.8336 39.8522ZM65.3107 49.8266C64.4069 50.7304 62.9371 50.7336 62.0342 49.8307C61.1324 48.9289 61.1341 47.4575 62.0379 46.5537C62.9433 45.6483 64.413 45.6483 65.3148 46.5501C66.2177 47.453 66.2161 48.9212 65.3107 49.8266Z" fill="white"/>
<defs>
<filter id="filter0_f_0_327" x="0.225773" y="0.225773" width="115.548" height="115.548" filterUnits="userSpaceOnUse" color-interpolation-filters="sRGB">
<feFlood flood-opacity="0" result="BackgroundImageFix"/>
<feBlend mode="normal" in="SourceGraphic" in2="BackgroundImageFix" result="shape"/>
<feGaussianBlur stdDeviation="20.3871" result="effect1_foregroundBlur_0_327"/>
</filter>
<linearGradient id="paint0_linear_0_327" x1="92" y1="58" x2="58" y2="24" gradientUnits="userSpaceOnUse">
<stop stop-color="#1BCEDF"/>
<stop offset="1" stop-color="#5B247A"/>
</linearGradient>
<linearGradient id="paint1_linear_0_327" x1="10" y1="51" x2="58" y2="99" gradientUnits="userSpaceOnUse">
<stop stop-color="#43E695"/>
<stop offset="1" stop-color="#3BB2B8"/>
</linearGradient>
</defs>
</svg>
