<svg width="27" height="33" viewBox="0 0 27 33" fill="none" xmlns="http://www.w3.org/2000/svg">
<path d="M13.0263 21.9644C13.3766 21.277 13.4818 20.651 13.3419 20.0866C13.2021 19.5221 12.7945 18.8486 12.1191 18.0661C11.4437 17.2835 10.8358 16.5299 10.2954 15.8052C9.75495 15.0804 9.3434 14.3501 9.06074 13.6143C8.77807 12.8784 8.65491 12.1306 8.69125 11.371C8.72759 10.6113 8.96965 9.79206 9.41743 8.91324C10.1667 7.44273 11.2789 6.48597 12.7541 6.04295C14.2337 5.59123 15.8401 5.70825 17.5731 6.39399L18.9763 3.64005L21.0516 4.69744L19.6218 7.50359C21.0944 8.54985 22.0083 9.843 22.3634 11.383C22.7318 12.9188 22.4947 14.5133 21.6524 16.1665L17.2408 13.9188C17.7019 13.0138 17.8826 12.2291 17.7828 11.5645C17.683 10.8998 17.3112 10.4035 16.6673 10.0754C16.093 9.78281 15.5518 9.73721 15.0437 9.93862C14.5486 10.1358 14.1393 10.5519 13.8157 11.1871C13.4876 11.831 13.4087 12.4375 13.5791 13.0066C13.7539 13.5669 14.1573 14.2273 14.7891 14.9876C15.4254 15.7393 16.005 16.484 16.5279 17.2217C17.0639 17.9551 17.4732 18.6898 17.7559 19.4257C18.0385 20.1615 18.1682 20.9181 18.1448 21.6953C18.1215 22.4725 17.8859 23.3006 17.4381 24.1794C16.68 25.6673 15.5873 26.6395 14.16 27.096C12.7415 27.5569 11.1787 27.4511 9.47179 26.7787L8.13509 29.4021L6.05985 28.3447L7.4032 25.7082C5.6083 24.5416 4.48114 23.1508 4.02172 21.5357C3.57543 19.9163 3.81115 18.2061 4.72889 16.4049L9.12736 18.6461C8.62194 19.638 8.45376 20.5059 8.62281 21.2496C8.805 21.9891 9.3007 22.565 10.1099 22.9773C10.7016 23.2788 11.2558 23.3419 11.7725 23.1668C12.2936 22.983 12.7115 22.5821 13.0263 21.9644Z" fill="white"/>
</svg>
