<svg width="117" height="20" viewBox="0 0 117 20" fill="none" xmlns="http://www.w3.org/2000/svg">
<path fill-rule="evenodd" clip-rule="evenodd" d="M6.53952 16.9181C8.30636 16.9181 9.361 15.9803 9.361 14.4526C9.361 12.9521 8.41168 11.907 6.59228 11.907H3.58624V16.9181H6.53952ZM6.17039 8.85204C7.8317 8.85204 8.83358 7.91398 8.83358 6.46705C8.83358 5.0197 7.91074 4.10856 6.1439 4.10856H3.58624V8.85204H6.17039ZM6.72409 1C10.3631 1 12.4198 3.17071 12.4198 6.11862C12.4198 8.07485 11.2596 9.65594 9.70386 10.1919C11.5233 10.6476 13 12.3357 13 14.694C13 17.7757 10.7322 20 7.22503 20H0V1H6.72409Z" fill="white"/>
<path fill-rule="evenodd" clip-rule="evenodd" d="M15.3902 20H18.6343V6.63049H15.3902V20ZM17 0C18.1219 0 19 1.00536 19 2.25551C19 3.45107 18.1219 4.45643 17 4.45643C15.9024 4.45643 15 3.45107 15 2.25551C15 1.00536 15.9024 0 17 0Z" fill="white"/>
<path fill-rule="evenodd" clip-rule="evenodd" d="M26.5546 19H23V6.33451H26.4477V7.90464C27.2494 6.59185 28.8265 6 30.2429 6C33.5035 6 35 8.23935 35 11.0197V19H31.4456V11.6117C31.4456 10.1959 30.7239 9.08916 29.0135 9.08916C27.4633 9.08916 26.5546 10.2474 26.5546 11.7147V19Z" fill="white"/>
<path fill-rule="evenodd" clip-rule="evenodd" d="M48.3914 13C48.3914 10.5056 46.7636 9.24526 45 9.24526C43.2364 9.24526 41.6086 10.5056 41.6086 13C41.6086 15.4675 43.2364 16.7547 45 16.7547C46.7636 16.7547 48.3914 15.4944 48.3914 13ZM52 13C52 17.0496 48.9884 20 45 20C41.0116 20 38 17.0496 38 13C38 8.92349 41.0116 6 45 6C48.9884 6 52 8.92349 52 13Z" fill="white"/>
<path fill-rule="evenodd" clip-rule="evenodd" d="M58.2155 6.8684H61V9.97362H58.2155V15.3946C58.2155 16.5262 58.7781 16.8946 59.8471 16.8946C60.2971 16.8946 60.8031 16.8421 61 16.7893V19.6841C60.6626 19.8156 59.9875 20 58.8906 20C56.1905 20 54.5031 18.4998 54.5031 16.0001V9.97362H52V6.8684H52.7029C54.1654 6.8684 54.8405 5.97368 54.8405 4.81588V3H58.2155V6.8684Z" fill="white"/>
<path fill-rule="evenodd" clip-rule="evenodd" d="M72 9.56451C71.6001 9.48574 71.2534 9.45962 70.9332 9.45962C69.1199 9.45962 67.5468 10.3244 67.5468 13.1029V19H64V6.10489H67.4401V8.01794C68.24 6.31445 70.0534 6 71.1735 6C71.4666 6 71.7336 6.02612 72 6.05244V9.56451Z" fill="white"/>
<path fill-rule="evenodd" clip-rule="evenodd" d="M82.2993 14.2763V13.6853L79.279 14.142C78.3538 14.2763 77.6191 14.787 77.6191 15.8081C77.6191 16.5874 78.1907 17.3397 79.3605 17.3397C80.8844 17.3397 82.2993 16.6142 82.2993 14.2763ZM78 12.0191L81.2924 11.5356C82.0544 11.4281 82.2993 11.0517 82.2993 10.595C82.2993 9.65445 81.5649 8.87536 80.041 8.87536C78.4625 8.87536 77.5918 9.86951 77.4829 11.025L74.2722 10.3534C74.49 8.28413 76.4219 6 80.0137 6C84.2586 6 85.8367 8.36468 85.8367 11.025V17.5278C85.8367 18.2263 85.9184 19.1669 86 19.6236H82.6803C82.5985 19.2745 82.5443 18.5489 82.5443 18.0383C81.864 19.0862 80.5852 20 78.5987 20C75.7414 20 74 18.0922 74 16.023C74 13.6583 75.7688 12.3415 78 12.0191Z" fill="white"/>
<path fill-rule="evenodd" clip-rule="evenodd" d="M95.0275 16.7662C96.8941 16.7662 98.3489 15.3532 98.3489 12.9347C98.3489 10.5434 96.8941 9.21202 95.0275 9.21202C93.1608 9.21202 91.6784 10.5705 91.6784 12.9618C91.6784 15.3532 93.1059 16.7662 95.0275 16.7662ZM101.89 17.2556C101.89 18.1522 101.945 19.1305 102 19.674H98.5139C98.4588 19.4021 98.3765 18.7501 98.3765 18.1251C97.7725 19.1848 96.4 20 94.5883 20C90.7451 20 88 17.0108 88 12.9618C88 9.0489 90.6626 5.97823 94.4784 5.97823C96.8116 5.97823 97.9097 6.92943 98.2942 7.63585V0H101.89V17.2556Z" fill="white"/>
<path fill-rule="evenodd" clip-rule="evenodd" d="M113.489 11.4981C113.435 10.1839 112.577 8.8966 110.54 8.8966C108.691 8.8966 107.672 10.2912 107.592 11.4981H113.489ZM116.812 15.8163C116.142 18.0959 114.051 20 110.808 20C107.19 20 104 17.3985 104 12.9464C104 8.73581 107.109 6 110.487 6C114.561 6 117 8.60155 117 12.8391C117 13.3488 116.946 13.8852 116.946 13.9387H107.511C107.592 15.682 109.066 16.9424 110.835 16.9424C112.497 16.9424 113.408 16.1111 113.837 14.931L116.812 15.8163Z" fill="white"/>
</svg>
