<svg width="35" height="36" viewBox="0 0 35 36" fill="none" xmlns="http://www.w3.org/2000/svg">
<mask id="mask0_0_344" style="mask-type:alpha" maskUnits="userSpaceOnUse" x="0" y="0" width="35" height="36">
<path fill-rule="evenodd" clip-rule="evenodd" d="M27.4313 6.02218L20.743 0L-7.33137e-06 23.0375L13.3766 35.0818L34.1196 12.0444L27.4313 6.02218Z" fill="white"/>
</mask>
<g mask="url(#mask0_0_344)">
<path fill-rule="evenodd" clip-rule="evenodd" d="M18.5508 24.6941L21.0992 21.8639C26.7863 15.5477 27.6063 9.37169 27.6969 7.0678C27.7066 6.81672 27.6103 6.57737 27.4249 6.41045C27.243 6.24669 26.9955 6.16997 26.75 6.20228C24.4515 6.51814 18.3432 7.93255 12.6497 14.2559L10.0981 17.0897L9.26827 16.9759C7.67129 16.7688 6.05185 17.373 4.95772 18.5882L1.91353 21.9691C1.73426 22.1682 1.67694 22.4527 1.76268 22.702C1.85361 22.9544 2.0716 23.1328 2.33332 23.1655L5.01732 23.5329C5.76809 23.6373 6.47145 23.9604 7.03463 24.4675L8.25589 25.5671L6.77982 27.2065C6.50851 27.5078 6.53123 27.9667 6.82644 28.2325L7.80433 29.113C8.09954 29.3788 8.55742 29.3526 8.82873 29.0513L10.3048 27.412L11.5269 28.5124C12.0901 29.0195 12.4883 29.6816 12.6673 30.421L13.3133 33.0519C13.3731 33.3087 13.5768 33.51 13.8338 33.5709C14.0943 33.6333 14.3677 33.5434 14.547 33.3443L17.5912 29.9634C18.6853 28.7482 19.1136 27.0781 18.744 25.5079L18.5508 24.6941ZM18.6919 16.0405C17.667 15.1177 17.5814 13.535 18.504 12.5104C19.4298 11.4822 21.0127 11.4019 22.0376 12.3248C23.0634 13.2484 23.1455 14.8278 22.2197 15.856C21.2971 16.8807 19.7177 16.9641 18.6919 16.0405Z" fill="white"/>
</g>
</svg>
