<svg width="32" height="32" viewBox="0 0 32 32" fill="none" xmlns="http://www.w3.org/2000/svg">
<path fill-rule="evenodd" clip-rule="evenodd" d="M1.41896 15.5516L11.3044 5.66619C12.0894 4.88123 13.4249 4.93968 14.2812 5.79599L15.5563 7.07109L4.11929 18.5081C3.4182 19.2092 2.25555 19.1758 1.46391 18.4345C0.684789 17.5692 0.664112 16.3065 1.41896 15.5516Z" fill="white"/>
<path fill-rule="evenodd" clip-rule="evenodd" d="M18.8336 4.85215L17.2605 6.4252C17.2013 6.48445 17.1464 6.54808 17.0964 6.6141C17.0856 6.62811 17.0727 6.64092 17.0603 6.65333C17.0399 6.67374 17.0151 6.68576 16.9899 6.70138C16.9775 6.71139 16.9679 6.7266 16.9527 6.73301L4.7177 18.968C4.65046 19.0352 4.58162 19.0977 4.50959 19.157C4.48637 19.177 4.46157 19.193 4.43796 19.2134C4.38794 19.2506 4.34072 19.2883 4.2895 19.3211C4.25949 19.3415 4.22709 19.3588 4.19868 19.3776C4.15027 19.4068 4.10506 19.4369 4.05825 19.4621C4.02384 19.4806 3.98784 19.495 3.95344 19.5134C3.90824 19.5339 3.86303 19.5575 3.81583 19.5791C3.77983 19.5936 3.74263 19.606 3.70623 19.62C3.65943 19.6389 3.61423 19.6561 3.56744 19.6686C3.52984 19.6814 3.49105 19.6923 3.45185 19.7035C3.40666 19.7143 3.35987 19.7268 3.31468 19.7376C3.27389 19.7473 3.2347 19.7521 3.19271 19.7598C3.14752 19.7674 3.10193 19.7755 3.05355 19.7799C3.01436 19.7847 2.97358 19.788 2.93359 19.7912C2.89761 19.7929 2.86442 19.7973 2.82843 19.799L12.6489 29.6194C13.4728 30.4433 14.813 30.4418 15.6367 29.6181L29.6181 15.6367C30.4423 14.8125 30.4434 13.4728 29.6195 12.6489L21.821 4.85039C20.9971 4.02649 19.6577 4.028 18.8336 4.85215ZM23.3107 14.8266C22.4069 15.7304 20.9371 15.7336 20.0342 14.8307C19.1324 13.9289 19.1341 12.4575 20.0379 11.5537C20.9433 10.6483 22.413 10.6483 23.3148 11.5501C24.2177 12.453 24.2161 13.9212 23.3107 14.8266Z" fill="white"/>
</svg>
