<svg width="163" height="31" viewBox="0 0 163 31" fill="none" xmlns="http://www.w3.org/2000/svg">
<path d="M0.537109 18V10.8906H2.82715C3.4554 10.8906 4.02018 11.0339 4.52148 11.3203C5.02279 11.6035 5.41341 12.0055 5.69336 12.5264C5.97656 13.0439 6.11979 13.625 6.12305 14.2695V14.5967C6.12305 15.2477 5.9847 15.832 5.70801 16.3496C5.43457 16.8639 5.0472 17.2676 4.5459 17.5605C4.04785 17.8503 3.49121 17.9967 2.87598 18H0.537109ZM2.25098 12.2139V16.6816H2.84668C3.33822 16.6816 3.71582 16.5075 3.97949 16.1592C4.24316 15.8076 4.375 15.2868 4.375 14.5967V14.2891C4.375 13.6022 4.24316 13.0846 3.97949 12.7363C3.71582 12.388 3.33171 12.2139 2.82715 12.2139H2.25098ZM9.48242 18.0977C8.67188 18.0977 8.01595 17.8568 7.51465 17.375C7.01335 16.89 6.7627 16.2601 6.7627 15.4854V15.3486C6.7627 14.8083 6.86198 14.3314 7.06055 13.918C7.26237 13.5046 7.55534 13.1855 7.93945 12.9609C8.32357 12.7331 8.7793 12.6191 9.30664 12.6191C10.0488 12.6191 10.6348 12.8503 11.0645 13.3125C11.4941 13.7715 11.709 14.4128 11.709 15.2363V15.876H8.4375C8.49609 16.1722 8.62467 16.4049 8.82324 16.5742C9.02181 16.7435 9.27897 16.8281 9.59473 16.8281C10.1156 16.8281 10.5225 16.6458 10.8154 16.2812L11.5674 17.1699C11.3623 17.4531 11.071 17.6794 10.6934 17.8486C10.319 18.0146 9.91536 18.0977 9.48242 18.0977ZM9.29688 13.8887C8.8151 13.8887 8.52865 14.2077 8.4375 14.8457H10.0977V14.7188C10.1042 14.4551 10.0374 14.2516 9.89746 14.1084C9.75749 13.9619 9.55729 13.8887 9.29688 13.8887ZM15.1416 16.5156C15.1416 16.3757 15.0684 16.2633 14.9219 16.1787C14.7754 16.0941 14.4971 16.0062 14.0869 15.915C13.6768 15.8239 13.3382 15.7051 13.0713 15.5586C12.8044 15.4089 12.6009 15.2282 12.4609 15.0166C12.321 14.805 12.251 14.5625 12.251 14.2891C12.251 13.804 12.4512 13.4053 12.8516 13.0928C13.252 12.777 13.776 12.6191 14.4238 12.6191C15.1204 12.6191 15.6803 12.777 16.1035 13.0928C16.5267 13.4085 16.7383 13.8236 16.7383 14.3379H15.0879C15.0879 13.9147 14.8649 13.7031 14.4189 13.7031C14.2464 13.7031 14.1016 13.752 13.9844 13.8496C13.8672 13.944 13.8086 14.0628 13.8086 14.2061C13.8086 14.3525 13.8802 14.4714 14.0234 14.5625C14.1667 14.6536 14.3945 14.7285 14.707 14.7871C15.0228 14.8457 15.2995 14.9157 15.5371 14.9971C16.3314 15.2705 16.7285 15.7604 16.7285 16.4668C16.7285 16.9486 16.5137 17.3408 16.084 17.6436C15.6576 17.9463 15.1042 18.0977 14.4238 18.0977C13.9714 18.0977 13.5677 18.0163 13.2129 17.8535C12.8581 17.6908 12.5814 17.4694 12.3828 17.1895C12.1842 16.9095 12.085 16.6149 12.085 16.3057H13.623C13.6296 16.5498 13.7109 16.7288 13.8672 16.8428C14.0234 16.9535 14.2236 17.0088 14.4678 17.0088C14.6924 17.0088 14.86 16.9632 14.9707 16.8721C15.0846 16.7809 15.1416 16.6621 15.1416 16.5156ZM19.2383 18H17.5879V12.7168H19.2383V18ZM17.4902 11.3545C17.4902 11.1201 17.5749 10.9281 17.7441 10.7783C17.9134 10.6286 18.1331 10.5537 18.4033 10.5537C18.6735 10.5537 18.8932 10.6286 19.0625 10.7783C19.2318 10.9281 19.3164 11.1201 19.3164 11.3545C19.3164 11.5889 19.2318 11.7809 19.0625 11.9307C18.8932 12.0804 18.6735 12.1553 18.4033 12.1553C18.1331 12.1553 17.9134 12.0804 17.7441 11.9307C17.5749 11.7809 17.4902 11.5889 17.4902 11.3545ZM20.0635 15.3193C20.0635 14.7855 20.1514 14.3135 20.3271 13.9033C20.5029 13.4932 20.7552 13.1774 21.084 12.9561C21.4128 12.7314 21.7952 12.6191 22.2314 12.6191C22.7816 12.6191 23.2113 12.8047 23.5205 13.1758L23.5791 12.7168H25.0732V17.7998C25.0732 18.2653 24.9642 18.6689 24.7461 19.0107C24.5312 19.3558 24.2188 19.6195 23.8086 19.8018C23.3984 19.9873 22.9232 20.0801 22.3828 20.0801C21.9954 20.0801 21.6195 20.0068 21.2549 19.8604C20.8936 19.7139 20.6169 19.5234 20.4248 19.2891L21.1133 18.3223C21.4193 18.6836 21.8229 18.8643 22.3242 18.8643C23.0534 18.8643 23.418 18.4899 23.418 17.7412V17.5752C23.1022 17.9235 22.7035 18.0977 22.2217 18.0977C21.5771 18.0977 21.0563 17.8519 20.6592 17.3604C20.262 16.8656 20.0635 16.2048 20.0635 15.3779V15.3193ZM21.7139 15.4219C21.7139 15.8548 21.7952 16.1982 21.958 16.4521C22.1208 16.7028 22.3486 16.8281 22.6416 16.8281C22.9964 16.8281 23.2552 16.7093 23.418 16.4717V14.25C23.2585 14.0091 23.0029 13.8887 22.6514 13.8887C22.3584 13.8887 22.1289 14.0205 21.9629 14.2842C21.7969 14.5446 21.7139 14.9238 21.7139 15.4219ZM27.5195 12.7168L27.5732 13.3369C27.9378 12.8584 28.4408 12.6191 29.082 12.6191C29.6322 12.6191 30.0423 12.7835 30.3125 13.1123C30.5859 13.4411 30.7275 13.9359 30.7373 14.5967V18H29.0869V14.665C29.0869 14.3981 29.0332 14.2028 28.9258 14.0791C28.8184 13.9521 28.623 13.8887 28.3398 13.8887C28.0176 13.8887 27.7783 14.0156 27.6221 14.2695V18H25.9766V12.7168H27.5195ZM34.209 18.0977C33.3984 18.0977 32.7425 17.8568 32.2412 17.375C31.7399 16.89 31.4893 16.2601 31.4893 15.4854V15.3486C31.4893 14.8083 31.5885 14.3314 31.7871 13.918C31.9889 13.5046 32.2819 13.1855 32.666 12.9609C33.0501 12.7331 33.5059 12.6191 34.0332 12.6191C34.7754 12.6191 35.3613 12.8503 35.791 13.3125C36.2207 13.7715 36.4355 14.4128 36.4355 15.2363V15.876H33.1641C33.2227 16.1722 33.3512 16.4049 33.5498 16.5742C33.7484 16.7435 34.0055 16.8281 34.3213 16.8281C34.8421 16.8281 35.249 16.6458 35.542 16.2812L36.2939 17.1699C36.0889 17.4531 35.7975 17.6794 35.4199 17.8486C35.0456 18.0146 34.6419 18.0977 34.209 18.0977ZM34.0234 13.8887C33.5417 13.8887 33.2552 14.2077 33.1641 14.8457H34.8242V14.7188C34.8307 14.4551 34.764 14.2516 34.624 14.1084C34.484 13.9619 34.2839 13.8887 34.0234 13.8887ZM36.8945 15.3193C36.8945 14.4827 37.0752 13.8236 37.4365 13.3418C37.7979 12.86 38.3024 12.6191 38.9502 12.6191C39.4222 12.6191 39.8193 12.8047 40.1416 13.1758V10.5H41.792V18H40.3125L40.2295 17.4336C39.891 17.8763 39.4613 18.0977 38.9404 18.0977C38.3122 18.0977 37.8141 17.8568 37.4463 17.375C37.0785 16.8932 36.8945 16.208 36.8945 15.3193ZM38.54 15.4219C38.54 16.3594 38.8135 16.8281 39.3604 16.8281C39.7249 16.8281 39.9854 16.6751 40.1416 16.3691V14.3574C39.9919 14.0449 39.7347 13.8887 39.3701 13.8887C38.8623 13.8887 38.5872 14.2988 38.5449 15.1191L38.54 15.4219ZM46.9531 18H45.3027V12.7168H46.9531V18ZM45.2051 11.3545C45.2051 11.1201 45.2897 10.9281 45.459 10.7783C45.6283 10.6286 45.848 10.5537 46.1182 10.5537C46.3883 10.5537 46.6081 10.6286 46.7773 10.7783C46.9466 10.9281 47.0312 11.1201 47.0312 11.3545C47.0312 11.5889 46.9466 11.7809 46.7773 11.9307C46.6081 12.0804 46.3883 12.1553 46.1182 12.1553C45.848 12.1553 45.6283 12.0804 45.459 11.9307C45.2897 11.7809 45.2051 11.5889 45.2051 11.3545ZM49.4824 12.7168L49.5361 13.3369C49.9007 12.8584 50.4036 12.6191 51.0449 12.6191C51.5951 12.6191 52.0052 12.7835 52.2754 13.1123C52.5488 13.4411 52.6904 13.9359 52.7002 14.5967V18H51.0498V14.665C51.0498 14.3981 50.9961 14.2028 50.8887 14.0791C50.7812 13.9521 50.5859 13.8887 50.3027 13.8887C49.9805 13.8887 49.7412 14.0156 49.585 14.2695V18H47.9395V12.7168H49.4824Z" fill="#93B2DC"/>
<g opacity="0.85">
<path fill-rule="evenodd" clip-rule="evenodd" d="M109.36 12.6867C109.36 13.2553 109.242 13.7455 109.005 14.1573C108.769 14.5691 108.434 14.922 108.02 15.1965C107.606 15.4907 107.133 15.7064 106.6 15.824C106.029 15.9809 105.477 16.0397 104.846 16.0397C104.432 16.0397 104.038 16.0005 103.663 15.9809C103.269 15.9417 102.894 15.8632 102.539 15.7456C102.185 15.6279 101.83 15.4711 101.475 15.275C101.14 15.0985 100.824 14.8632 100.489 14.5691C100.45 14.5299 100.45 14.471 100.489 14.4514L101.83 12.6867C101.869 12.6474 101.928 12.6278 101.948 12.6474C102.401 13.0004 102.875 13.2749 103.308 13.4122C103.781 13.5887 104.294 13.6867 104.767 13.6867C105.122 13.6867 105.418 13.6475 105.654 13.5887C105.891 13.5298 106.108 13.4318 106.246 13.3141C106.403 13.2161 106.482 13.0984 106.541 12.9808C106.6 12.8631 106.64 12.7455 106.64 12.6278C106.64 12.471 106.6 12.3337 106.522 12.1768C106.423 12.0592 106.305 11.9415 106.108 11.8239C105.91 11.7062 105.654 11.6082 105.339 11.4906C105.004 11.3729 104.629 11.2552 104.156 11.1376C103.624 10.9807 103.17 10.8435 102.756 10.667C102.342 10.4905 102.007 10.2748 101.751 10.0199C101.495 9.76501 101.278 9.45127 101.12 9.09832C100.962 8.74537 100.903 8.33359 100.903 7.86299C100.903 7.35317 101.002 6.88257 101.199 6.51001C101.416 6.11784 101.672 5.76489 102.066 5.47076C102.421 5.17663 102.875 4.96094 103.367 4.82368C103.88 4.66681 104.432 4.58838 105.023 4.58838C105.674 4.58838 106.324 4.6472 106.955 4.76485C107.586 4.88251 108.197 5.15702 108.848 5.58841C108.887 5.62763 108.907 5.68645 108.887 5.70606L107.823 7.62769C107.783 7.6669 107.724 7.68651 107.704 7.6669C107.192 7.37278 106.758 7.15708 106.305 7.07865C105.851 7.00022 105.418 6.961 104.964 6.961C104.55 6.961 104.215 7.01983 103.959 7.17669C103.683 7.33356 103.565 7.52964 103.565 7.86299C103.565 8.01986 103.604 8.13751 103.683 8.25516C103.781 8.37281 103.9 8.49046 104.097 8.5885C104.314 8.70615 104.55 8.80419 104.866 8.92184C105.201 9.01989 105.575 9.13754 106.029 9.2748C106.738 9.49049 107.33 9.68657 107.744 9.92187C108.158 10.1572 108.513 10.4317 108.749 10.7258C108.986 11.0199 109.143 11.3141 109.222 11.6474C109.301 12.0004 109.36 12.3337 109.36 12.6867Z" fill="#A3BDE1"/>
<path fill-rule="evenodd" clip-rule="evenodd" d="M120.262 8.78469C120.262 8.45134 120.202 8.19643 120.104 7.96113C119.986 7.72583 119.867 7.54936 119.69 7.4317C119.512 7.27484 119.335 7.1964 119.099 7.13758C118.882 7.07875 118.684 7.03954 118.468 7.03954C118.251 7.03954 118.014 7.07875 117.817 7.13758C117.62 7.1964 117.403 7.31405 117.226 7.4317C117.048 7.58857 116.891 7.76505 116.812 7.96113C116.693 8.19643 116.654 8.47095 116.654 8.78469V11.9416C116.654 12.275 116.713 12.5299 116.812 12.7652C116.93 13.0005 117.048 13.177 117.226 13.2946C117.403 13.4515 117.581 13.5299 117.817 13.5888C118.034 13.6476 118.231 13.6868 118.468 13.6868C118.684 13.6868 118.882 13.6476 119.099 13.5888C119.315 13.5299 119.512 13.4123 119.69 13.2946C119.867 13.1378 119.986 12.9613 120.104 12.7652C120.222 12.5299 120.262 12.2554 120.262 11.9416V8.78469ZM122.844 12.4515C122.844 13.0789 122.726 13.6084 122.489 14.0397C122.253 14.4907 121.917 14.8633 121.543 15.1966C121.129 15.4908 120.676 15.7261 120.143 15.8829C119.611 16.0398 119.039 16.1182 118.448 16.1182C117.857 16.1182 117.285 16.0202 116.792 15.8829C116.26 15.7261 115.806 15.4908 115.392 15.1966C114.978 14.9025 114.643 14.5104 114.407 14.0397C114.17 13.5888 114.052 13.0397 114.052 12.4515V8.23565C114.052 7.60818 114.17 7.07875 114.446 6.64737C114.722 6.19637 115.038 5.82381 115.452 5.54929C115.865 5.27478 116.339 5.03948 116.851 4.90222C117.383 4.74535 117.896 4.68652 118.428 4.68652C118.96 4.68652 119.493 4.78457 120.025 4.92182C120.557 5.07869 121.03 5.31399 121.444 5.60812C121.859 5.90225 122.193 6.29442 122.45 6.7258C122.726 7.1768 122.844 7.72583 122.844 8.31409V12.4515Z" fill="#A3BDE1"/>
<path fill-rule="evenodd" clip-rule="evenodd" d="M128.009 15.9028V4.90224C128.009 4.84361 128.048 4.8042 128.107 4.8042H130.473C130.532 4.8042 130.572 4.84361 130.572 4.90224V13.6086C130.572 13.6674 130.611 13.7066 130.67 13.7066H135.835C135.894 13.7066 135.934 13.7458 135.934 13.8047V15.9224C135.934 15.981 135.894 16.0204 135.835 16.0204H128.127C128.068 15.981 128.009 15.9224 128.009 15.9028Z" fill="#A3BDE1"/>
<path fill-rule="evenodd" clip-rule="evenodd" d="M143.543 11.6475H145.613C145.672 11.6475 145.712 11.5886 145.712 11.5298L145.494 10.8827L144.607 7.78461H144.548L143.661 10.8827L143.445 11.5298C143.445 11.5886 143.484 11.6475 143.543 11.6475ZM146.323 13.7848H142.833C142.794 13.7848 142.774 13.824 142.735 13.8436L142.104 15.9415C142.104 15.9809 142.045 16.0005 142.005 16.0005H139.403C139.344 16.0005 139.285 15.9415 139.305 15.8829L143.227 4.88256C143.227 4.84334 143.287 4.82373 143.326 4.82373H145.869C145.909 4.82373 145.928 4.86295 145.968 4.88256L149.792 15.8829C149.831 15.9415 149.753 16.0005 149.693 16.0005H147.131C147.091 16.0005 147.072 15.9613 147.032 15.9415L146.382 13.8436C146.382 13.8044 146.362 13.7848 146.323 13.7848Z" fill="#A3BDE1"/>
<path fill-rule="evenodd" clip-rule="evenodd" d="M156.81 9.51022C156.81 9.56905 156.85 9.60827 156.909 9.60827H158.742C159.215 9.60827 159.57 9.49062 159.787 9.25531C160.004 9.02001 160.122 8.72589 160.122 8.37294C160.122 8.01998 160.004 7.72586 159.787 7.49056C159.57 7.25525 159.215 7.1376 158.742 7.1376H156.909C156.85 7.1376 156.81 7.17682 156.81 7.23565V9.51022ZM159.274 4.8042C159.905 4.8042 160.437 4.90224 160.851 5.09833C161.305 5.31402 161.66 5.56893 161.916 5.92188C162.192 6.25522 162.389 6.62778 162.507 7.07878C162.626 7.49056 162.685 7.94155 162.685 8.37294C162.685 8.66706 162.645 8.96119 162.566 9.25532C162.488 9.54944 162.35 9.84357 162.211 10.1181C162.054 10.3926 161.857 10.6279 161.62 10.8632C161.403 11.0789 161.167 11.275 160.91 11.4319C160.871 11.4711 160.851 11.4907 160.871 11.5495L162.803 15.9222C162.842 15.981 162.764 16.0398 162.704 16.0398H160.141C160.102 16.0398 160.083 16.0008 160.043 15.981L158.387 11.9613C158.387 11.9221 158.328 11.9025 158.289 11.9025H156.83C156.771 11.9025 156.731 11.9417 156.731 12.0005V15.9222C156.731 15.981 156.692 16.0202 156.633 16.0202H154.227C154.169 16.0202 154.129 15.981 154.129 15.9222V4.92185C154.129 4.86302 154.169 4.82381 154.227 4.82381H159.274V4.8042Z" fill="#A3BDE1"/>
<path fill-rule="evenodd" clip-rule="evenodd" d="M104.322 21.1977C104.322 20.9481 104.271 20.7442 104.196 20.5855C104.12 20.4042 103.995 20.2679 103.844 20.1774C103.693 20.0867 103.542 19.996 103.341 19.9278C103.139 19.8827 102.963 19.86 102.762 19.86H101.505C101.429 19.86 101.379 19.9054 101.379 19.9734V24.2355C101.379 24.3038 101.429 24.3489 101.505 24.3489H102.762C102.963 24.3489 103.114 24.3038 103.29 24.2811C103.492 24.2355 103.642 24.1451 103.793 24.0317C103.944 23.9184 104.07 23.7821 104.171 23.6236C104.296 23.442 104.322 23.2382 104.322 23.0115V21.1977ZM105.227 23.1019C105.227 23.3742 105.152 23.6463 105.026 23.8955C104.9 24.1451 104.749 24.3489 104.523 24.5078C104.322 24.689 104.07 24.8252 103.793 24.8933C103.517 25.0066 103.215 25.0291 102.913 25.0291H100.574C100.499 25.0291 100.448 24.9839 100.448 24.9157V19.2476C100.448 19.1798 100.499 19.1343 100.574 19.1343H102.913C103.215 19.1343 103.517 19.1798 103.793 19.2705C104.07 19.361 104.296 19.4744 104.523 19.656C104.724 19.8373 104.875 20.0412 105.026 20.2679C105.152 20.5175 105.177 20.7896 105.177 21.0614V23.1019H105.227Z" fill="#A3BDE1"/>
<path fill-rule="evenodd" clip-rule="evenodd" d="M108.295 24.9158V20.9031C108.295 20.8348 108.346 20.7897 108.421 20.7897H109C109.075 20.7897 109.125 20.8348 109.125 20.9031V24.9158C109.125 24.9841 109.075 25.0292 109 25.0292H108.421C108.346 25.0292 108.295 24.9841 108.295 24.9158ZM109.201 19.5199C109.201 19.6561 109.151 19.7695 109.05 19.8599C108.924 19.9733 108.824 19.9962 108.673 19.9962C108.547 19.9962 108.396 19.9509 108.321 19.8599C108.195 19.7466 108.17 19.6561 108.17 19.5199C108.17 19.384 108.22 19.2707 108.321 19.2027C108.446 19.0893 108.547 19.0664 108.673 19.0664C108.824 19.0664 108.949 19.1118 109.05 19.2027C109.125 19.2931 109.201 19.384 109.201 19.5199Z" fill="#A3BDE1"/>
<path fill-rule="evenodd" clip-rule="evenodd" d="M115.111 22.0589C115.111 22.0136 115.111 21.9909 115.061 21.9456C114.835 21.8095 114.608 21.6962 114.382 21.6055C114.105 21.4921 113.879 21.4694 113.703 21.4694C113.426 21.4694 113.25 21.5375 113.099 21.6735C112.948 21.8095 112.873 22.0589 112.873 22.399V23.5326C112.873 23.8727 112.948 24.0768 113.099 24.2128C113.25 24.3488 113.451 24.4168 113.703 24.4168C113.904 24.4168 114.131 24.3715 114.382 24.2808C114.608 24.2128 114.835 24.0994 115.061 24.0087C115.111 23.9634 115.111 23.9407 115.111 23.8954V22.0589ZM113.628 20.7666C113.778 20.7666 114.005 20.8119 114.231 20.88C114.457 20.948 114.759 21.084 115.111 21.2881L115.187 20.9026C115.187 20.8573 115.262 20.8346 115.313 20.8346H115.841C115.916 20.8346 115.966 20.88 115.966 20.948V25.3464C115.966 25.5958 115.916 25.7998 115.816 26.0039C115.69 26.1853 115.539 26.344 115.363 26.48C115.162 26.616 114.935 26.7294 114.709 26.7521C114.483 26.8201 114.206 26.8654 113.954 26.8654C113.703 26.8654 113.376 26.8201 113.074 26.7294C112.798 26.6614 112.546 26.5254 112.319 26.344C112.269 26.2986 112.269 26.2306 112.319 26.2079L112.747 25.7545C112.823 25.8225 112.898 25.8905 113.024 25.9359C113.149 26.0039 113.225 26.0492 113.326 26.0719C113.426 26.0946 113.552 26.1399 113.678 26.1399C113.804 26.1853 113.879 26.1853 113.979 26.1853C114.131 26.1853 114.281 26.1853 114.432 26.1399C114.583 26.0946 114.709 26.0266 114.81 25.9585C114.935 25.8905 115.011 25.7772 115.086 25.6411C115.162 25.5051 115.212 25.3691 115.212 25.1877V24.7116C114.91 24.893 114.608 25.029 114.382 25.0517C114.105 25.1197 113.929 25.165 113.728 25.165C113.275 25.165 112.898 25.029 112.596 24.7796C112.295 24.5075 112.143 24.1674 112.143 23.646V22.3537C112.143 21.8775 112.295 21.4921 112.596 21.22C112.798 20.9026 113.175 20.7666 113.628 20.7666Z" fill="#A3BDE1"/>
<path fill-rule="evenodd" clip-rule="evenodd" d="M118.934 24.9158V20.9031C118.934 20.8348 118.985 20.7897 119.06 20.7897H119.639C119.714 20.7897 119.764 20.8348 119.764 20.9031V24.9158C119.764 24.9841 119.714 25.0292 119.639 25.0292H119.06C119.01 25.0292 118.934 24.9841 118.934 24.9158ZM119.84 19.5199C119.84 19.6561 119.789 19.7695 119.689 19.8599C119.563 19.9733 119.463 19.9962 119.312 19.9962C119.186 19.9962 119.035 19.9509 118.96 19.8599C118.834 19.7466 118.809 19.6561 118.809 19.5199C118.809 19.384 118.859 19.2707 118.96 19.2027C119.086 19.0893 119.186 19.0664 119.312 19.0664C119.463 19.0664 119.589 19.1118 119.689 19.2027C119.789 19.2931 119.84 19.384 119.84 19.5199Z" fill="#A3BDE1"/>
<path fill-rule="evenodd" clip-rule="evenodd" d="M125.675 24.8478C125.675 24.9158 125.625 24.9611 125.599 24.9611C125.449 25.0065 125.298 25.0291 125.096 25.0745C124.895 25.1198 124.745 25.1198 124.644 25.1198C124.141 25.1198 123.763 25.0065 123.537 24.8024C123.311 24.5984 123.185 24.2583 123.185 23.7822V21.6056C123.185 21.5376 123.135 21.4923 123.059 21.4923H122.632C122.556 21.4923 122.506 21.4469 122.506 21.3789V20.9255C122.506 20.8574 122.556 20.8121 122.632 20.8121H123.084C123.135 20.8121 123.21 20.7668 123.21 20.7441L123.361 19.9279C123.361 19.8828 123.411 19.8599 123.487 19.8599H123.864C123.94 19.8599 123.99 19.9052 123.99 19.9732V20.6987C123.99 20.7668 124.04 20.8121 124.116 20.8121H125.172C125.248 20.8121 125.298 20.8574 125.298 20.9255V21.3789C125.298 21.4469 125.248 21.4923 125.172 21.4923H124.116C124.04 21.4923 123.99 21.5376 123.99 21.6056V23.5781C123.99 23.7595 123.99 23.8955 124.04 23.9862C124.09 24.0996 124.116 24.1905 124.191 24.2583C124.266 24.3263 124.342 24.3716 124.417 24.3943C124.493 24.4397 124.619 24.4397 124.719 24.4397C124.82 24.4397 124.946 24.4397 125.072 24.3943C125.197 24.3943 125.348 24.349 125.499 24.349L125.675 24.8478Z" fill="#A3BDE1"/>
<path fill-rule="evenodd" clip-rule="evenodd" d="M131.082 23.2381C131.082 23.1701 131.032 23.1247 130.957 23.1247H129.825C129.699 23.1247 129.599 23.1247 129.473 23.1701C129.347 23.1701 129.246 23.2152 129.121 23.2834C128.995 23.3515 128.919 23.3968 128.844 23.4875C128.769 23.6008 128.718 23.6915 128.718 23.8276C128.718 24.0316 128.794 24.213 128.945 24.281C129.096 24.3944 129.297 24.4622 129.548 24.4622C129.674 24.4622 129.775 24.4622 129.925 24.417C130.051 24.3717 130.202 24.3488 130.303 24.3037C130.428 24.2583 130.529 24.1903 130.655 24.1677C130.781 24.0996 130.881 24.0543 130.957 24.0316V23.2381H131.082ZM131.032 24.5984C130.655 24.7798 130.353 24.9156 130.127 24.9839C129.901 25.0519 129.674 25.0519 129.473 25.0519C129.02 25.0519 128.643 24.9385 128.366 24.7118C128.09 24.4622 127.938 24.1677 127.938 23.782C127.938 23.5328 128.014 23.3286 128.14 23.1927C128.266 23.0114 128.416 22.9207 128.593 22.8073C128.794 22.694 128.97 22.6259 129.171 22.6033C129.372 22.5579 129.548 22.535 129.699 22.535H131.057V22.2178C131.057 21.9004 130.982 21.6964 130.781 21.6057C130.579 21.5148 130.328 21.4243 129.976 21.4243C129.825 21.4243 129.599 21.4697 129.372 21.4923C129.171 21.5377 128.945 21.6281 128.769 21.7644C128.718 21.8097 128.643 21.8097 128.618 21.719L128.341 21.3336C128.291 21.288 128.291 21.2203 128.391 21.1976C128.668 21.0162 128.97 20.8802 129.221 20.8575C129.523 20.7895 129.825 20.7441 130.102 20.7441C130.705 20.7441 131.158 20.8802 131.46 21.1296C131.761 21.379 131.912 21.7415 131.912 22.2632V24.9612C131.912 25.029 131.862 25.0745 131.787 25.0745H131.183L131.032 24.5984Z" fill="#A3BDE1"/>
<path fill-rule="evenodd" clip-rule="evenodd" d="M135.811 23.8957C135.811 24.1453 135.861 24.2811 135.962 24.304C136.037 24.3491 136.188 24.372 136.39 24.372C136.465 24.372 136.515 24.4174 136.515 24.4854V25.0746C136.44 25.0746 136.314 25.12 136.238 25.12H136.012C135.786 25.12 135.585 25.0746 135.484 25.0522C135.358 25.0066 135.258 24.9388 135.132 24.8479C135.006 24.7345 134.981 24.6441 134.981 24.5078C134.931 24.372 134.931 24.2357 134.931 24.0544V19.044C134.931 18.976 134.981 18.9307 135.057 18.9307H135.635C135.71 18.9307 135.761 18.976 135.761 19.044V23.9186H135.811V23.8957Z" fill="#A3BDE1"/>
<path fill-rule="evenodd" clip-rule="evenodd" d="M81.7752 19.7378L74.5254 26.949C74.3212 27.1521 74.0659 27.2537 73.8107 27.2537C73.5554 27.2537 73.3001 27.1521 73.0959 26.949C72.6875 26.5427 72.6875 25.8995 73.0959 25.4932L80.3116 18.282C80.7201 17.8757 81.3668 17.8757 81.7752 18.282C82.1837 18.6883 82.1837 19.3315 81.7752 19.7378ZM79.8011 14.4902L76.1932 18.0789C75.989 18.282 75.7337 18.3836 75.4785 18.3836C75.2232 18.3836 74.9679 18.282 74.7637 18.0789C74.3553 17.6726 74.3553 17.0293 74.7637 16.6231L78.3716 13.0344C78.78 12.6281 79.4267 12.6281 79.8351 13.0344C80.2095 13.4406 80.2095 14.0839 79.8011 14.4902ZM72.9427 11.24L80.1925 4.0288C80.601 3.62254 81.2477 3.62254 81.6561 4.0288C82.0645 4.43507 82.0645 5.07833 81.6561 5.48459L74.3893 12.6958C74.1851 12.899 73.9298 13.0005 73.6745 13.0005C73.4193 13.0005 73.164 12.899 72.9598 12.6958C72.5343 12.2726 72.5343 11.6463 72.9427 11.24ZM77.3505 0.101562C68.8754 0.101562 62 6.95731 62 15.3704C62 23.7835 68.8924 30.6393 77.3505 30.6393C85.8085 30.6393 92.7009 23.7835 92.7009 15.3704C92.7009 6.95731 85.8426 0.101562 77.3505 0.101562Z" fill="#93B2DC"/>
</g>
</svg>
